# xmcd CD database file
#
# Track frame offsets:
#	150
#	18821
#	37475
#	55948
#	74322
#	92463
#
# Disc length: 1531 seconds
#
# Revision: 0
# Processed by: cddbd v1.5.2PL0 Copyright (c) Steve Scherf et al.
# Submitted via: CDex 1.70beta2
#
DISCID=4905f906
DTITLE=鉄腕トカゲ探知機 - ノスタルジック幻想状態
DYEAR=2008
DGENRE=東方アレンジ
TTITLE0=春一番
TTITLE1=或る泉に纏わる悲劇的伝説
TTITLE2=正体不明
TTITLE3=６階の魔女
TTITLE4=宵待ち人、星詠み人
TTITLE5=ミッチイの人工黒点
EXTD=YEAR: 2008
EXTT0=
EXTT1=
EXTT2=
EXTT3=
EXTT4=
EXTT5=
PLAYORDER=
